<svg width="31" height="26" viewBox="0 0 31 26" fill="none" xmlns="http://www.w3.org/2000/svg">
<path d="M26.6738 11.4542V3.08599C26.6738 1.38437 25.2894 0 23.5878 0H6.50839C4.80677 0 3.42252 1.38437 3.42252 3.08599V11.4542C1.46179 11.9258 0 13.6932 0 15.7966V22.0383C0 22.5335 0.401422 22.9349 0.8966 22.9349H3.42246V25.1034C3.42246 25.5986 3.82388 26 4.31906 26C4.81424 26 5.21566 25.5986 5.21566 25.1034V22.9349H24.8806V25.1034C24.8806 25.5986 25.282 26 25.7772 26C26.2723 26 26.6738 25.5986 26.6738 25.1034V22.9349H29.1996C29.6948 22.9349 30.0962 22.5335 30.0962 22.0383V15.7966C30.0963 13.6932 28.6345 11.9258 26.6738 11.4542ZM5.21572 3.08599C5.21572 2.3732 5.79566 1.79326 6.50839 1.79326H23.5879C24.3007 1.79326 24.8806 2.3732 24.8806 3.08599V11.3297H21.9177V9.91515C21.9177 7.57152 20.011 5.66487 17.6674 5.66487H12.429C10.0854 5.66487 8.17874 7.57158 8.17874 9.91515V11.3296H5.21572V3.08599ZM20.1245 9.91515V11.3296H9.97182V9.91515C9.97182 8.56029 11.074 7.45807 12.4289 7.45807H17.6674C19.0222 7.45801 20.1245 8.56035 20.1245 9.91515ZM1.7932 21.1417V15.7966C1.7932 14.3223 2.99265 13.1229 4.46695 13.1229H25.6293C27.1036 13.1229 28.303 14.3223 28.303 15.7966V21.1417H1.7932Z" fill="#0E0E0E"/>
</svg>
