<svg width="36" height="26" viewBox="0 0 36 26" fill="none" xmlns="http://www.w3.org/2000/svg">
<path d="M17.5756 11.6782C18.7306 11.6782 19.8595 11.3357 20.8198 10.694C21.7801 10.0524 22.5285 9.14038 22.9704 8.07335C23.4123 7.00633 23.5279 5.83222 23.3025 4.69951C23.0771 3.56681 22.5208 2.52638 21.7041 1.70982C20.8874 0.893251 19.8468 0.337225 18.7141 0.112055C17.5813 -0.113114 16.4072 0.00268776 15.3403 0.444816C14.2734 0.886945 13.3615 1.63554 12.72 2.59593C12.0786 3.55632 11.7363 4.68537 11.7365 5.84028C11.7384 7.38822 12.3543 8.87221 13.4489 9.96666C14.5436 11.0611 16.0277 11.6766 17.5756 11.6782ZM17.5756 2.36471C18.263 2.36471 18.935 2.56855 19.5066 2.95045C20.0781 3.33235 20.5236 3.87516 20.7867 4.51024C21.0497 5.14532 21.1185 5.84414 20.9844 6.51833C20.8503 7.19253 20.5193 7.81181 20.0332 8.29788C19.5472 8.78395 18.9279 9.11496 18.2537 9.24907C17.5795 9.38317 16.8807 9.31435 16.2456 9.05129C15.6105 8.78823 15.0677 8.34276 14.6858 7.7712C14.3039 7.19965 14.1001 6.52768 14.1001 5.84028C14.1013 4.91889 14.4679 4.03559 15.1194 3.38406C15.771 2.73254 16.6543 2.36596 17.5756 2.36471Z" fill="#0E0E0E"/>
<path d="M6.54506 15.11C7.43324 15.11 8.30147 14.8467 9.03996 14.3532C9.77845 13.8598 10.354 13.1584 10.6939 12.3379C11.0338 11.5173 11.1227 10.6144 10.9495 9.74324C10.7762 8.87213 10.3485 8.07197 9.72047 7.44393C9.09243 6.81589 8.29226 6.38819 7.42115 6.21492C6.55004 6.04164 5.64711 6.13057 4.82654 6.47047C4.00597 6.81036 3.30462 7.38594 2.81117 8.12443C2.31773 8.86293 2.05435 9.73116 2.05435 10.6193C2.05435 11.8103 2.52748 12.9526 3.36965 13.7947C4.21182 14.6369 5.35405 15.11 6.54506 15.11ZM6.54506 8.49216C6.96577 8.49216 7.37704 8.61692 7.72685 8.85065C8.07667 9.08439 8.34931 9.41661 8.51031 9.8053C8.67131 10.194 8.71344 10.6217 8.63136 11.0343C8.54928 11.447 8.34669 11.826 8.0492 12.1235C7.75171 12.421 7.37268 12.6236 6.96005 12.7056C6.54742 12.7877 6.11971 12.7456 5.73102 12.5846C5.34233 12.4236 5.01011 12.1509 4.77638 11.8011C4.54264 11.4513 4.41788 11.0401 4.41788 10.6193C4.41788 10.0552 4.64199 9.51412 5.04092 9.1152C5.43984 8.71627 5.9809 8.49216 6.54506 8.49216Z" fill="#0E0E0E"/>
<path d="M28.6051 15.11C29.4932 15.11 30.3615 14.8467 31.1 14.3532C31.8384 13.8598 32.414 13.1584 32.7539 12.3379C33.0938 11.5173 33.1827 10.6144 33.0095 9.74324C32.8362 8.87213 32.4085 8.07197 31.7805 7.44393C31.1524 6.81589 30.3523 6.38819 29.4811 6.21492C28.61 6.04164 27.7071 6.13057 26.8865 6.47047C26.066 6.81036 25.3646 7.38594 24.8712 8.12443C24.3777 8.86293 24.1143 9.73116 24.1143 10.6193C24.1143 11.8103 24.5875 12.9526 25.4296 13.7947C26.2718 14.6369 27.414 15.11 28.6051 15.11ZM28.6051 8.49216C29.0258 8.49216 29.437 8.61692 29.7868 8.85065C30.1367 9.08439 30.4093 9.41661 30.5703 9.8053C30.7313 10.194 30.7734 10.6217 30.6914 11.0343C30.6093 11.447 30.4067 11.826 30.1092 12.1235C29.8117 12.421 29.4327 12.6236 29.02 12.7056C28.6074 12.7877 28.1797 12.7456 27.791 12.5846C27.4023 12.4236 27.0701 12.1509 26.8364 11.8011C26.6026 11.4513 26.4779 11.0401 26.4779 10.6193C26.4779 10.0552 26.702 9.51412 27.1009 9.1152C27.4998 8.71627 28.0409 8.49216 28.6051 8.49216Z" fill="#0E0E0E"/>
<path d="M28.7622 17.4807C27.7262 17.4875 26.7083 17.7528 25.8007 18.2524C24.9379 16.8863 23.7486 15.7566 22.3401 14.965C20.9317 14.1734 19.3483 13.7448 17.7328 13.7179C16.1174 13.7448 14.534 14.1734 13.1255 14.965C11.717 15.7566 10.5278 16.8863 9.66492 18.2524C8.75732 17.7528 7.73941 17.4875 6.70341 17.4807C4.84438 17.5714 3.09672 18.3939 1.84199 19.7686C0.587259 21.1434 -0.0726403 22.9587 0.00635644 24.8182C0.00635644 25.1317 0.130863 25.4322 0.352487 25.6539C0.574111 25.8755 0.874697 26 1.18812 26C1.50154 26 1.80213 25.8755 2.02375 25.6539C2.24538 25.4322 2.36988 25.1317 2.36988 24.8182C2.29243 23.5857 2.70392 22.3724 3.51514 21.4412C4.32636 20.5101 5.47192 19.9363 6.70341 19.8442C7.35648 19.8492 7.99763 20.0196 8.56706 20.3393C8.0101 21.743 7.72497 23.2396 7.72682 24.7497C7.72682 25.0631 7.85133 25.3637 8.07295 25.5853C8.29458 25.8069 8.59516 25.9315 8.90859 25.9315C9.22201 25.9315 9.5226 25.8069 9.74422 25.5853C9.96584 25.3637 10.0904 25.0631 10.0904 24.7497C10.0904 19.9695 13.5175 16.0815 17.7328 16.0815C21.9482 16.0815 25.3753 19.9695 25.3753 24.7497C25.3753 25.0631 25.4998 25.3637 25.7214 25.5853C25.943 25.8069 26.2436 25.9315 26.5571 25.9315C26.8705 25.9315 27.1711 25.8069 27.3927 25.5853C27.6143 25.3637 27.7388 25.0631 27.7388 24.7497C27.7407 23.2396 27.4555 21.743 26.8986 20.3393C27.468 20.0196 28.1092 19.8492 28.7622 19.8442C29.9937 19.9363 31.1393 20.5101 31.9505 21.4412C32.7617 22.3724 33.1732 23.5857 33.0958 24.8182C33.0958 25.1317 33.2203 25.4322 33.4419 25.6539C33.6635 25.8755 33.9641 26 34.2775 26C34.5909 26 34.8915 25.8755 35.1132 25.6539C35.3348 25.4322 35.4593 25.1317 35.4593 24.8182C35.5383 22.9587 34.8784 21.1434 33.6236 19.7686C32.3689 18.3939 30.6213 17.5714 28.7622 17.4807Z" fill="#0E0E0E"/>
</svg>
