<?xml version="1.0" encoding="UTF-8"?>
<!DOCTYPE svg PUBLIC "-//W3C//DTD SVG 1.1//EN" "http://www.w3.org/Graphics/SVG/1.1/DTD/svg11.dtd">
<!-- Creator: CorelDRAW X5 -->
<svg xmlns="http://www.w3.org/2000/svg" xml:space="preserve" width="31.7029mm" height="31.7032mm" shape-rendering="geometricPrecision" text-rendering="geometricPrecision" image-rendering="optimizeQuality" fill-rule="evenodd" clip-rule="evenodd"
viewBox="0 0 596 596"
 xmlns:xlink="http://www.w3.org/1999/xlink">
 <g id="Capa_x0020_1">
  <metadata id="CorelCorpID_0Corel-Layer"/>
  <path fill="black" d="M298 0c-81,0 -91,0 -123,2 -32,1 -53,6 -72,14 -20,8 -36,18 -53,34 -17,17 -27,33 -34,53 -7,19 -12,41 -14,72 -1,32 -2,42 -2,123 0,81 0,91 2,123 1,32 6,53 14,72 8,20 18,36 34,53 17,17 33,27 53,34 19,7 41,12 72,14 32,1 42,2 123,2 81,0 91,0 123,-2 32,-1 53,-6 72,-14 20,-8 36,-18 53,-34 17,-17 27,-33 34,-53 7,-19 12,-41 14,-72 1,-32 2,-42 2,-123 0,-81 0,-91 -2,-123 -1,-32 -6,-53 -14,-72 -8,-20 -18,-36 -34,-53 -17,-17 -33,-27 -53,-34 -19,-7 -41,-12 -72,-14 -32,-1 -42,-2 -123,-2zm0 54c80,0 89,0 120,2 29,1 45,6 55,10 14,5 24,12 34,22 10,10 17,20 22,34 4,10 9,26 10,55 1,31 2,41 2,120 0,80 0,89 -2,120 -1,29 -6,45 -10,55 -5,14 -12,24 -22,34 -10,10 -20,17 -34,22 -10,4 -26,9 -55,10 -31,1 -41,2 -120,2 -80,0 -89,0 -120,-2 -29,-1 -45,-6 -55,-10 -14,-5 -24,-12 -34,-22 -10,-10 -17,-20 -22,-34 -4,-10 -9,-26 -10,-55 -1,-31 -2,-41 -2,-120 0,-80 0,-89 2,-120 1,-29 6,-45 10,-55 5,-14 12,-24 22,-34 10,-10 20,-17 34,-22 10,-4 26,-9 55,-10 31,-1 41,-2 120,-2zm0 343c-55,0 -99,-44 -99,-99 0,-55 44,-99 99,-99 55,0 99,44 99,99 0,55 -44,99 -99,99zm0 -252c-84,0 -153,68 -153,153 0,84 68,153 153,153 84,0 153,-68 153,-153 0,-84 -68,-153 -153,-153zm195 -6c0,20 -16,36 -36,36 -20,0 -36,-16 -36,-36 0,-20 16,-36 36,-36 20,0 36,16 36,36z"/>
 </g>
</svg>
