<svg width="22" height="26" viewBox="0 0 22 26" fill="none" xmlns="http://www.w3.org/2000/svg">
<path d="M16.9272 0H11.0703C8.2702 0 5.99219 2.27802 5.99219 5.07813V8.06351C2.6077 8.55704 0 11.4781 0 14.9975C0 15.5583 0.454651 16.0132 1.01562 16.0132H13C13.561 16.0132 14.0156 15.5583 14.0156 14.9975C14.0156 11.4781 11.4079 8.55704 8.02344 8.06351V5.07813C8.02344 3.39798 9.39017 2.03125 11.0703 2.03125H16.927C18.6072 2.03125 19.9739 3.39798 19.9739 5.07813V24.9844C19.9739 25.5453 20.4285 26 20.9895 26C21.5505 26 22.0051 25.5453 22.0051 24.9844V5.07813C22.0053 2.27802 19.7271 0 16.9272 0ZM11.8802 13.9817H2.13539C2.60551 11.7229 4.61157 10.0208 7.00781 10.0208C9.40405 10.0208 11.4101 11.7229 11.8802 13.9817ZM8.02344 18.4929V20.0163C8.02344 20.5773 7.56879 21.032 7.00781 21.032C6.44684 21.032 5.99219 20.5773 5.99219 20.0163V18.4929C5.99219 17.9319 6.44684 17.4773 7.00781 17.4773C7.56879 17.4773 8.02344 17.9319 8.02344 18.4929ZM8.01134 23.4609V24.9844C8.01134 25.5453 7.55669 26 6.99571 26C6.43494 26 5.98009 25.5453 5.98009 24.9844V23.4609C5.98009 22.9 6.43494 22.4453 6.99571 22.4453C7.55669 22.4453 8.01134 22.9 8.01134 23.4609ZM4.03473 18.4929V20.0163C4.03473 20.5773 3.57988 21.032 3.0191 21.032C2.45813 21.032 2.00348 20.5773 2.00348 20.0163V18.4929C2.00348 17.9319 2.45813 17.4773 3.0191 17.4773C3.57988 17.4773 4.03473 17.9319 4.03473 18.4929ZM4.02263 23.4609V24.9844C4.02263 25.5453 3.56798 26 3.007 26C2.44603 26 1.99138 25.5453 1.99138 24.9844V23.4609C1.99138 22.9 2.44603 22.4453 3.007 22.4453C3.56798 22.4453 4.02263 22.9 4.02263 23.4609ZM12.0002 18.4929V20.0163C12.0002 20.5773 11.5454 21.032 10.9846 21.032C10.4236 21.032 9.96899 20.5773 9.96899 20.0163V18.4929C9.96899 17.9319 10.4236 17.4773 10.9846 17.4773C11.5454 17.4773 12.0002 17.9319 12.0002 18.4929ZM11.9881 23.4609V24.9844C11.9881 25.5453 11.5333 26 10.9725 26C10.4115 26 9.95689 25.5453 9.95689 24.9844V23.4609C9.95689 22.9 10.4115 22.4453 10.9725 22.4453C11.5333 22.4453 11.9881 22.9 11.9881 23.4609Z" fill="#0E0E0E"/>
</svg>
