<?xml version="1.0" encoding="UTF-8"?>
<!DOCTYPE svg PUBLIC "-//W3C//DTD SVG 1.1//EN" "http://www.w3.org/Graphics/SVG/1.1/DTD/svg11.dtd">
<!-- Creator: CorelDRAW X5 -->
<svg xmlns="http://www.w3.org/2000/svg" xml:space="preserve" width="34.3809mm" height="34.3891mm" shape-rendering="geometricPrecision" text-rendering="geometricPrecision" image-rendering="optimizeQuality" fill-rule="evenodd" clip-rule="evenodd"
viewBox="0 0 718 718"
 xmlns:xlink="http://www.w3.org/1999/xlink">
 <g id="Capa_x0020_1">
  <metadata id="CorelCorpID_0Corel-Layer"/>
  <path fill="black" d="M365 644c-60,0 -116,-18 -163,-49l-114 36 37 -109c-35,-49 -56,-108 -56,-172 0,-10 1,-19 1,-29 15,-149 141,-265 295,-265 156,0 283,120 295,271 1,8 1,15 1,23 0,162 -133,294 -296,294zm352 -303c-5,-189 -161,-341 -352,-341 -189,0 -344,148 -352,334 0,5 0,10 0,15 0,66 18,128 50,181l-64 188 195 -62c50,28 109,44 170,44 195,0 352,-157 352,-350 0,-3 0,-6 0,-9z"/>
  <path fill="black" d="M527 420c-9,-4 -51,-25 -59,-28 -8,-3 -14,-4 -19,4 -6,9 -22,28 -27,34 -5,6 -10,6 -19,2 -9,-4 -36,-13 -69,-43 -26,-23 -43,-51 -48,-59 -5,-9 0,-13 4,-17 4,-4 9,-10 13,-15 1,-1 2,-3 3,-4 2,-3 3,-6 5,-10 3,-6 1,-11 -1,-15 -2,-4 -19,-47 -27,-64 -7,-17 -14,-14 -19,-14 -5,0 -11,-1 -17,-1 -6,0 -15,2 -23,11 -8,9 -30,29 -30,72 0,10 2,20 4,29 9,30 28,55 31,59 4,6 60,95 148,130 88,34 88,23 104,21 16,-1 51,-21 58,-41 7,-20 7,-37 5,-41 -2,-3 -8,-6 -17,-10z"/>
 </g>
</svg>
