<svg width="28" height="26" viewBox="0 0 28 26" fill="none" xmlns="http://www.w3.org/2000/svg">
<path d="M25.2432 14.5946H23.1756L27.5561 4.37346C27.7325 3.96189 27.5418 3.48519 27.1302 3.30881C26.7186 3.13243 26.2419 3.32308 26.0656 3.73465L21.4113 14.5946H6.26438L1.61011 3.73465C1.43373 3.32308 0.957135 3.13232 0.545459 3.30881C0.133892 3.48519 -0.0567568 3.96184 0.119622 4.37346L4.50011 14.5946H2.43243C1.09119 14.5946 0 15.6858 0 17.027V21.8919C0 23.2331 1.09119 24.3243 2.43243 24.3243H3.2973V25.1892C3.2973 25.637 3.66032 26 4.10811 26C4.55589 26 4.91892 25.637 4.91892 25.1892V24.3243H22.7568V25.1892C22.7568 25.637 23.1198 26 23.5676 26C24.0154 26 24.3784 25.637 24.3784 25.1892V24.3243H25.2432C26.5845 24.3243 27.6757 23.2331 27.6757 21.8919V17.027C27.6757 15.6858 26.5845 14.5946 25.2432 14.5946ZM26.0541 21.8919C26.0541 22.339 25.6903 22.7027 25.2432 22.7027H2.43243C1.98535 22.7027 1.62162 22.339 1.62162 21.8919V17.027C1.62162 16.5799 1.98535 16.2162 2.43243 16.2162H25.2432C25.6903 16.2162 26.0541 16.5799 26.0541 17.027V21.8919Z" fill="#0E0E0E"/>
<path d="M12.1211 10.4431C11.8045 10.7597 11.8045 11.2731 12.1211 11.5897C12.4377 11.9064 12.9511 11.9064 13.2678 11.5897C13.3568 11.5007 13.5493 11.3514 13.8378 11.3514C14.1264 11.3514 14.3188 11.5007 14.4079 11.5897C14.7245 11.9064 15.2379 11.9064 15.5545 11.5897C15.8712 11.2731 15.8712 10.7597 15.5545 10.4431C15.2881 10.1767 14.7108 9.72973 13.8378 9.72973C12.9649 9.72973 12.3876 10.1767 12.1211 10.4431Z" fill="#0E0E0E"/>
<path d="M6.384 4.7127C8.37589 2.71941 11.023 1.62162 13.8378 1.62162C16.6526 1.62162 19.2998 2.71941 21.2917 4.7127C21.608 5.02935 22.1214 5.02978 22.4383 4.71314C22.7551 4.39665 22.7552 3.88324 22.4388 3.56649C20.1406 1.26659 17.0861 0 13.8378 0C10.5896 0 7.53514 1.26659 5.23697 3.56643C4.92043 3.88319 4.92059 4.39654 5.23741 4.71308C5.55411 5.02962 6.06757 5.02941 6.384 4.7127Z" fill="#0E0E0E"/>
<path d="M20.1436 7.00546C20.4603 6.68903 20.4606 6.17562 20.1442 5.85881C18.4592 4.17216 16.2196 3.24324 13.8378 3.24324C11.4561 3.24324 9.21643 4.17216 7.53151 5.85881C7.21508 6.17562 7.2153 6.68897 7.53211 7.00546C7.84892 7.32195 8.36232 7.32168 8.67876 7.00486C10.0573 5.62486 11.8895 4.86486 13.8378 4.86486C15.7861 4.86486 17.6182 5.62486 18.9968 7.00486C19.3132 7.32151 19.8265 7.32216 20.1436 7.00546Z" fill="#0E0E0E"/>
<path d="M17.8496 9.29708C18.1663 8.98043 18.1663 8.46708 17.8496 8.15043C16.7766 7.07741 15.3518 6.48649 13.8378 6.48649C12.3238 6.48649 10.8991 7.07741 9.82611 8.15043C9.50946 8.46708 9.50946 8.98043 9.82611 9.29708C10.1427 9.61373 10.6561 9.61378 10.9728 9.29708C11.7395 8.53038 12.757 8.10811 13.8378 8.10811C14.9187 8.10811 15.9362 8.53038 16.703 9.29708C17.0196 9.61373 17.533 9.61373 17.8496 9.29708Z" fill="#0E0E0E"/>
<path d="M17.0811 17.8378C16.6333 17.8378 16.2703 18.2009 16.2703 18.6486V20.2703C16.2703 20.7181 16.6333 21.0811 17.0811 21.0811C17.5289 21.0811 17.8919 20.7181 17.8919 20.2703V18.6486C17.8919 18.2009 17.5289 17.8378 17.0811 17.8378Z" fill="#0E0E0E"/>
<path d="M20.3243 17.8378C19.8765 17.8378 19.5135 18.2009 19.5135 18.6486V20.2703C19.5135 20.7181 19.8765 21.0811 20.3243 21.0811C20.7721 21.0811 21.1351 20.7181 21.1351 20.2703V18.6486C21.1351 18.2009 20.7721 17.8378 20.3243 17.8378Z" fill="#0E0E0E"/>
<path d="M23.5676 17.8378C23.1198 17.8378 22.7568 18.2009 22.7568 18.6486V20.2703C22.7568 20.7181 23.1198 21.0811 23.5676 21.0811C24.0154 21.0811 24.3784 20.7181 24.3784 20.2703V18.6486C24.3784 18.2009 24.0154 17.8378 23.5676 17.8378Z" fill="#0E0E0E"/>
</svg>
