<?xml version="1.0" encoding="UTF-8"?>
<!DOCTYPE svg PUBLIC "-//W3C//DTD SVG 1.1//EN" "http://www.w3.org/Graphics/SVG/1.1/DTD/svg11.dtd">
<!-- Creator: CorelDRAW X5 -->
<svg xmlns="http://www.w3.org/2000/svg" xml:space="preserve" width="151.19mm" height="54.6246mm" shape-rendering="geometricPrecision" text-rendering="geometricPrecision" image-rendering="optimizeQuality" fill-rule="evenodd" clip-rule="evenodd"
viewBox="0 0 6244 2256"
 xmlns:xlink="http://www.w3.org/1999/xlink">
 <g id="Capa_x0020_1">
  <metadata id="CorelCorpID_0Corel-Layer"/>
  <path fill="white" fill-rule="nonzero" d="M4758 1376c0,-12 5,-24 15,-36 10,-11 21,-17 32,-17 9,0 17,3 23,9 6,6 8,14 8,24 0,13 -5,25 -14,36 -9,11 -20,17 -32,17 -9,0 -17,-3 -24,-10 -6,-6 -9,-15 -9,-25zm-143 253c-21,21 -43,45 -66,71 -23,26 -36,39 -41,39 -1,0 -3,0 -3,-1 -1,0 -1,-1 -1,-3 0,-5 13,-22 38,-52 26,-30 62,-69 109,-118l83 -6 -115 182c-25,39 -40,66 -47,79 -7,13 -10,24 -10,31 0,6 2,11 6,15 4,4 8,7 14,7 14,0 32,-8 53,-23 21,-15 48,-42 83,-79 6,-7 15,-17 25,-28 15,-17 25,-26 28,-26 2,0 3,1 5,2 1,1 2,3 2,4 0,3 -3,9 -9,17 -7,8 -21,24 -44,48 -39,40 -68,67 -88,81 -20,14 -38,21 -53,21 -19,0 -34,-7 -46,-20 -11,-13 -17,-31 -17,-54 0,-30 27,-85 80,-167 6,-10 11,-17 14,-22zm-793 258l152 -228 4 -7c21,-32 32,-53 32,-63 0,-5 -1,-9 -4,-12 -3,-3 -7,-4 -12,-4 -12,0 -29,8 -48,24 -20,16 -49,45 -87,86 -8,8 -17,19 -28,33 -13,16 -22,25 -26,25 -2,0 -3,-1 -4,-1 -1,-1 -2,-2 -2,-3 0,-3 2,-7 5,-13 3,-5 11,-14 21,-26l37 -41c37,-40 65,-68 85,-81 19,-14 36,-21 52,-21 14,0 25,5 33,15 8,10 12,23 12,41 0,18 -4,37 -11,57 -7,20 -19,44 -35,70 52,-66 93,-113 124,-141 31,-28 56,-41 78,-41 14,0 25,5 33,14 9,9 13,21 13,35 0,21 -4,41 -12,62 -8,21 -20,44 -37,68 61,-71 106,-118 135,-143 29,-25 52,-37 69,-37 13,0 24,5 32,16 8,11 12,25 12,42 0,29 -19,70 -58,123 -6,9 -11,15 -14,20 -21,29 -35,50 -42,64 -7,14 -11,25 -11,34 0,7 2,12 4,16 3,4 8,5 14,5 10,0 25,-9 47,-26 22,-17 48,-42 78,-74 9,-9 19,-21 31,-34 12,-14 19,-21 22,-21 2,0 4,1 5,2 2,1 2,3 2,4 0,6 -17,27 -50,61l-7 7c-32,33 -59,58 -80,74 -21,16 -38,24 -49,24 -17,0 -30,-8 -40,-23 -10,-15 -15,-35 -15,-60 0,-18 5,-37 14,-56 9,-19 29,-49 60,-88 4,-5 10,-13 18,-22 22,-28 33,-46 33,-55 0,-5 -1,-9 -3,-11 -2,-2 -5,-3 -10,-4 -17,0 -51,27 -102,82 -51,54 -114,129 -187,224l-81 8 151 -228c15,-23 25,-39 30,-48 4,-9 7,-17 7,-23 0,-5 -1,-9 -4,-11 -3,-2 -7,-3 -13,-3 -30,0 -116,88 -257,264l-34 42 -82 8zm-381 -1l151 -227 4 -7c21,-32 32,-53 32,-63 0,-5 -1,-9 -4,-12 -3,-3 -7,-4 -12,-4 -13,0 -29,8 -48,24 -20,16 -49,45 -87,86 -8,8 -17,19 -28,33 -13,16 -22,25 -26,25 -2,0 -3,0 -4,-1 -1,-1 -2,-2 -2,-3 0,-3 2,-7 5,-13 3,-5 11,-14 21,-26l37 -41c37,-40 66,-68 85,-82 19,-14 37,-21 53,-21 13,0 24,5 32,14 8,10 13,22 13,36 0,19 -3,38 -10,57 -7,19 -22,49 -45,88l1 -1c42,-41 75,-71 98,-92 15,-40 29,-67 43,-81 14,-14 31,-21 52,-21 8,0 14,2 19,6 5,4 7,9 7,15 0,12 -22,34 -66,67 -8,6 -14,11 -18,14 -17,13 -30,26 -37,40 -7,14 -11,29 -11,47 0,10 3,17 8,23 6,6 12,9 21,9 19,0 39,-9 58,-28 20,-19 30,-28 30,-28 2,0 4,1 5,2 1,1 2,2 2,4 0,9 -11,22 -33,40 -22,17 -42,26 -59,26 -16,0 -28,-4 -36,-12 -8,-8 -12,-19 -12,-34 0,-6 1,-13 3,-22 2,-9 6,-20 11,-34 -23,19 -48,45 -76,75 -28,31 -59,69 -95,115l-81 8zm-319 -170c-6,8 -12,14 -15,18 -4,4 -7,5 -10,5 -2,0 -3,0 -4,-1 -1,-1 -1,-2 -1,-4 0,-3 4,-9 12,-19 8,-10 19,-23 33,-38 36,-39 71,-70 108,-90 37,-21 71,-31 104,-31 19,0 35,5 46,15 12,10 18,23 18,39 0,32 -21,64 -63,94 -42,30 -99,53 -170,70 -2,14 -4,24 -4,31 -1,6 -1,12 -1,16 0,17 4,30 12,40 8,10 20,14 34,14 20,0 41,-7 63,-20 22,-13 49,-35 80,-66 13,-13 27,-28 41,-44 14,-17 23,-25 26,-25 2,0 3,1 5,2 1,1 2,3 2,4 0,3 -4,10 -11,18 -7,9 -23,26 -48,52 -34,34 -64,59 -89,74 -25,15 -50,22 -74,22 -29,0 -52,-12 -71,-36 -19,-24 -28,-54 -28,-91 0,-8 1,-16 2,-24 1,-8 3,-17 5,-25zm63 39c52,-12 96,-34 133,-68 37,-33 55,-65 55,-94 0,-6 -2,-12 -6,-17 -4,-4 -9,-7 -14,-7 -25,0 -55,18 -89,54 -34,36 -60,80 -79,132zm1685 -126c-21,21 -43,45 -66,71 -23,26 -36,39 -41,39 -1,0 -3,0 -3,-1 -1,0 -1,-1 -1,-3 0,-8 23,-35 68,-82 45,-47 77,-85 97,-114l50 -76 -56 0 9 -17 57 0 71 -114 75 -6 -74 120 133 0 -9 17 -134 0 -173 280c-18,30 -32,54 -41,72 -9,18 -13,31 -13,39 0,6 2,11 6,15 4,4 8,7 14,7 14,0 31,-7 50,-22 20,-15 48,-41 86,-81 8,-8 18,-19 29,-32 13,-15 21,-22 24,-22 2,0 3,1 5,2 1,1 2,3 2,4 0,3 -3,9 -10,17 -6,8 -21,24 -43,48 -39,40 -68,67 -88,81 -20,14 -38,21 -53,21 -19,0 -34,-7 -46,-20 -11,-13 -17,-31 -17,-54 0,-30 27,-85 80,-167 6,-10 11,-17 14,-22zm215 205c0,11 3,20 7,26 5,6 12,10 20,10 13,0 29,-6 48,-20 19,-13 39,-31 60,-54 31,-35 56,-69 73,-102 17,-33 26,-62 26,-86 0,-10 -4,-19 -11,-26 -7,-7 -16,-11 -27,-11 -19,0 -39,8 -62,25 -22,17 -44,40 -66,70 -21,30 -38,60 -50,90 -12,30 -18,55 -18,76zm248 -199l48 -70 76 -5 -127 202c-19,30 -31,50 -36,62 -5,11 -7,21 -7,30 0,6 1,10 4,12 3,2 7,4 14,4 10,0 26,-8 48,-25 21,-17 47,-41 77,-72 9,-9 20,-20 31,-34 12,-13 19,-20 22,-20 2,0 4,0 5,1 1,1 2,2 2,3 0,4 -4,12 -13,22 -9,11 -22,25 -40,44 -41,42 -71,70 -90,83 -20,13 -38,19 -55,19 -15,0 -27,-5 -35,-15 -8,-10 -12,-24 -12,-44 0,-5 0,-11 1,-17 1,-6 2,-15 4,-28 -26,34 -52,60 -77,77 -25,17 -48,26 -69,26 -21,0 -37,-11 -49,-32 -12,-21 -18,-51 -18,-88 0,-9 1,-18 2,-27 1,-9 3,-18 5,-27 -4,7 -9,13 -13,17 -4,4 -8,6 -11,6 -3,0 -4,0 -5,-1 -1,-1 -1,-2 -1,-3 0,-3 5,-11 15,-22 10,-12 23,-26 40,-43 36,-37 73,-65 109,-85 37,-20 70,-30 100,-30 18,0 33,5 44,15 11,10 17,23 17,39 0,4 0,8 -1,12 -1,4 -2,9 -3,14zm311 297c-84,49 -149,97 -196,145 -46,47 -70,88 -70,123 0,13 3,23 8,29 6,7 14,10 25,10 29,0 61,-24 97,-71 36,-47 81,-126 135,-236zm-102 -98c0,11 3,20 7,26 5,6 12,10 20,10 13,0 29,-6 48,-20 19,-13 39,-31 60,-54 31,-35 56,-69 73,-102 17,-33 26,-62 26,-86 0,-10 -4,-19 -11,-26 -8,-7 -16,-11 -27,-11 -19,0 -39,8 -62,25 -22,17 -44,40 -66,70 -21,30 -38,60 -50,90 -12,30 -18,55 -18,76zm248 -199l48 -70 71 -5c-35,58 -68,114 -99,169 -31,55 -59,108 -85,159 48,-31 91,-67 130,-108 39,-41 58,-61 58,-61 2,0 3,1 4,2 1,1 1,2 1,4 0,11 -21,37 -64,78 -42,41 -91,78 -146,112 -57,109 -111,193 -163,252 -53,59 -98,89 -138,89 -19,0 -34,-5 -44,-15 -10,-10 -15,-24 -15,-44 0,-38 24,-79 71,-124 47,-45 127,-100 238,-166l59 -129c-34,39 -63,68 -87,86 -25,18 -47,27 -68,27 -21,0 -37,-11 -49,-32 -12,-21 -18,-51 -18,-88 0,-9 1,-18 2,-27 1,-9 3,-18 5,-27 -4,7 -9,13 -13,17 -4,4 -8,6 -11,6 -3,0 -4,0 -5,-1 -1,-1 -1,-2 -1,-3 0,-3 5,-11 15,-22 10,-12 23,-26 40,-43 36,-37 72,-65 109,-85 36,-20 70,-30 100,-30 19,0 33,5 44,15 11,10 17,23 17,39 0,4 0,8 -1,12 -1,4 -2,9 -3,14zm203 120c52,-12 96,-34 133,-68 37,-33 55,-65 55,-94 0,-6 -2,-12 -6,-17 -4,-4 -9,-7 -14,-7 -25,0 -55,18 -89,54 -34,36 -60,80 -79,132zm-63 -39c-6,8 -12,14 -15,18 -4,4 -7,5 -10,5 -2,0 -3,0 -4,-1 -1,-1 -1,-2 -1,-4 0,-3 4,-9 12,-19 8,-10 19,-23 33,-38 36,-39 71,-70 108,-90 36,-21 71,-31 104,-31 19,0 35,5 46,15 12,10 18,23 18,39 0,32 -21,64 -63,94 -42,30 -99,53 -170,70 -2,14 -4,24 -4,31 -1,6 -1,12 -1,16 0,17 4,30 12,40 8,10 20,14 34,14 20,0 41,-7 63,-20 22,-13 49,-35 80,-66 13,-13 27,-28 41,-44 14,-17 23,-25 26,-25 2,0 3,1 5,2 1,1 2,3 2,4 0,3 -4,10 -11,18 -7,9 -23,26 -48,52 -34,34 -64,59 -89,74 -25,15 -50,22 -74,22 -29,0 -52,-12 -71,-36 -19,-24 -28,-54 -28,-91 0,-8 1,-16 2,-24 1,-8 3,-17 5,-25zm-4922 -545c-124,28 -219,64 -284,109 -65,45 -98,96 -98,152 0,37 13,68 41,92 27,24 61,36 104,36 73,0 131,-30 175,-90 45,-61 67,-141 67,-241 0,-15 0,-27 0,-34 0,-8 -2,-15 -3,-23zm118 -76l481 -117c102,-188 200,-345 295,-473 94,-128 189,-232 283,-313 -64,46 -128,80 -193,102 -64,22 -132,33 -202,33 -87,0 -187,-22 -298,-66 -112,-44 -185,-66 -218,-66 -41,0 -72,16 -94,49 -22,32 -34,78 -34,138 0,100 38,223 114,367 21,40 32,64 32,71 0,4 -1,8 -3,12 -2,4 -5,6 -7,6 -28,0 -65,-54 -112,-162 -47,-108 -70,-208 -70,-300 0,-97 27,-176 80,-236 53,-61 122,-91 206,-91 65,0 158,32 280,94 122,63 208,95 260,95 32,0 71,-7 116,-22 45,-14 97,-36 156,-66 7,-7 16,-18 27,-30 68,-80 119,-120 151,-120 14,0 25,4 34,13 9,9 13,20 13,34 0,28 -13,51 -40,71 -26,19 -68,35 -126,49 -99,99 -194,214 -285,347 -91,132 -177,279 -257,440l426 -109c163,-243 347,-443 553,-598 206,-155 375,-233 508,-233 56,0 99,15 130,45 31,31 46,73 46,126 0,59 -21,118 -63,176 -42,58 -105,116 -188,172 -83,56 -186,108 -308,156 -122,48 -287,100 -494,156 -65,127 -113,243 -144,350 -31,106 -46,208 -46,305 0,101 16,181 46,241 31,59 75,94 134,104 -3,-39 -4,-67 -5,-87 0,-19 0,-37 0,-54 0,-193 41,-348 123,-468 82,-119 186,-179 313,-179 78,0 141,28 192,83 50,55 75,126 75,214 0,139 -61,263 -183,372 -122,109 -270,168 -445,177 3,39 7,77 13,114 6,37 10,56 10,57 0,5 -2,10 -6,13 -4,4 -9,6 -13,6 -9,-1 -15,-5 -20,-13 -5,-8 -9,-22 -13,-42l-29 -138c-110,-10 -198,-57 -264,-139 -66,-83 -99,-188 -99,-315 0,-88 13,-177 38,-269 26,-91 63,-184 113,-279l-433 109c-142,279 -315,498 -519,656 -204,157 -414,236 -628,236 -151,0 -278,-49 -379,-146 -102,-98 -153,-218 -153,-362 0,-80 18,-158 54,-233 36,-75 87,-142 154,-200 65,-58 141,-104 228,-138 87,-33 173,-50 257,-50 114,0 210,29 286,86 77,58 126,137 147,239zm1233 -306c275,-80 494,-178 658,-295 164,-117 247,-230 247,-339 0,-31 -9,-55 -26,-71 -17,-16 -44,-23 -80,-23 -102,0 -231,68 -385,203 -154,136 -292,311 -414,524zm20 1061l10 0c140,0 256,-45 349,-137 93,-91 139,-204 139,-339 0,-81 -17,-146 -52,-196 -35,-49 -80,-74 -135,-74 -93,0 -167,67 -224,202 -57,135 -86,316 -87,543zm-802 -820l-449 112 0 15c0,123 -46,233 -138,330 -92,96 -191,145 -298,145 -53,0 -94,-15 -124,-44 -30,-30 -45,-70 -45,-122 0,-72 39,-137 119,-194 79,-57 196,-105 350,-145 -30,-96 -78,-169 -143,-220 -65,-51 -143,-77 -233,-77 -126,0 -236,45 -329,136 -93,91 -139,201 -139,329 0,145 48,266 144,360 96,95 218,143 367,143 177,0 337,-60 481,-180 144,-120 290,-316 438,-588zm2767 -333c-21,22 -43,46 -65,72 -22,26 -36,39 -40,39 -2,0 -3,-1 -4,-2 -1,-1 -2,-2 -2,-3 0,-3 2,-7 5,-12 4,-5 11,-14 21,-26l37 -41c24,-26 45,-49 64,-72 19,-22 32,-37 37,-46l231 -359 76 -10 -361 573c-25,39 -41,66 -47,79 -7,13 -10,24 -10,31 0,6 2,11 6,16 4,4 9,7 15,7 14,0 30,-6 48,-18 18,-12 49,-40 93,-84 9,-9 19,-20 31,-34 12,-13 20,-20 23,-20 2,0 4,1 5,2 1,1 2,3 2,4 0,3 -3,9 -10,17 -6,8 -21,24 -44,48 -39,40 -69,67 -89,81 -20,14 -38,21 -54,21 -19,0 -34,-7 -46,-20 -12,-13 -17,-31 -17,-54 0,-31 28,-89 85,-174l9 -15zm-409 87c-6,8 -12,14 -16,18 -4,4 -7,5 -10,5 -2,0 -3,0 -4,-1 -1,-1 -1,-2 -1,-4 0,-3 4,-9 12,-19 8,-10 19,-23 34,-38 36,-39 72,-70 109,-90 37,-21 72,-31 105,-31 20,0 35,5 47,15 12,10 18,23 18,39 0,32 -21,64 -64,94 -43,30 -100,53 -172,70 -2,14 -4,24 -4,31 -1,6 -1,12 -1,16 0,17 4,30 12,40 8,10 20,14 35,14 20,0 41,-7 63,-20 23,-13 49,-35 81,-66 13,-13 27,-28 42,-44 15,-17 23,-25 27,-25 2,0 4,1 5,2 1,1 2,3 2,4 0,3 -4,10 -11,18 -7,9 -23,26 -49,52 -34,34 -64,59 -90,74 -26,15 -51,22 -75,22 -29,0 -53,-12 -71,-36 -19,-24 -28,-54 -28,-91 0,-8 1,-16 2,-24 1,-8 3,-17 5,-25zm64 39c52,-12 97,-34 134,-68 37,-33 56,-65 56,-94 0,-6 -2,-12 -6,-17 -4,-4 -9,-7 -14,-7 -26,0 -56,18 -90,54 -34,36 -61,80 -80,132zm-241 -126c-21,21 -44,45 -67,71 -23,26 -37,39 -41,39 -1,0 -3,0 -3,-1 -1,0 -1,-1 -1,-3 0,-8 23,-35 68,-82 46,-47 78,-85 98,-114l51 -76 -57 0 10 -17 57 0 71 -114 76 -6 -75 120 135 0 -9 17 -136 0 -175 280c-19,30 -32,54 -41,72 -9,18 -13,31 -13,39 0,6 2,11 6,15 4,4 9,7 14,7 14,0 31,-7 51,-22 20,-15 49,-41 87,-81 8,-8 18,-19 29,-32 13,-15 21,-22 25,-22 2,0 4,1 5,2 1,1 2,3 2,4 0,3 -3,9 -10,17 -6,8 -21,24 -44,48 -39,40 -69,67 -89,81 -20,14 -38,21 -54,21 -19,0 -34,-7 -46,-20 -12,-13 -17,-31 -17,-54 0,-30 27,-85 81,-167 6,-10 11,-17 14,-22zm-230 151c1,0 3,0 5,1 6,2 10,2 14,2 15,0 31,-4 49,-14 17,-9 33,-22 48,-38l15 -18c1,-1 2,-2 4,-2 2,-1 4,-1 5,-1 1,0 3,1 3,2 1,1 1,3 1,5 0,2 0,3 0,4 0,1 -1,1 -1,2l-13 16c-16,19 -34,34 -55,45 -21,11 -42,16 -64,16 -7,0 -12,0 -16,-1 -4,0 -8,-1 -11,-1 -28,30 -55,53 -82,70 -27,16 -51,25 -73,25 -25,0 -45,-11 -58,-31 -13,-21 -20,-51 -20,-90 0,-7 1,-15 2,-24 2,-9 4,-19 7,-30 -6,8 -12,14 -16,18 -4,4 -7,5 -10,5 -2,0 -3,0 -4,-1 -1,-1 -1,-2 -1,-4 0,-2 3,-7 9,-15 6,-8 19,-23 39,-45 35,-38 71,-68 107,-89 36,-22 69,-32 99,-32 25,0 44,8 59,23 14,15 22,36 22,62 0,20 -5,42 -15,64 -10,22 -26,48 -49,78zm-197 51c0,14 3,25 9,31 6,7 15,10 27,10 13,0 29,-6 50,-19 20,-13 41,-30 60,-51 26,-28 46,-56 61,-87 15,-31 22,-59 22,-84 0,-18 -4,-33 -12,-43 -8,-11 -19,-16 -33,-16 -17,0 -36,8 -56,24 -20,16 -41,40 -63,71 -21,29 -37,59 -48,87 -12,29 -17,54 -17,75z"/>
 </g>
</svg>
