<svg width="32" height="26" viewBox="0 0 32 26" fill="none" xmlns="http://www.w3.org/2000/svg">
<path d="M28.9092 0H2.78568C1.24966 0 0 1.24966 0 2.78568V12.0713C0 13.6073 1.24966 14.857 2.78568 14.857H28.9092C30.4452 14.857 31.6949 13.6073 31.6949 12.0713V2.78568C31.6949 1.24966 30.4452 0 28.9092 0ZM29.8378 12.0713C29.8378 12.5833 29.4212 12.9999 28.9092 12.9999H2.78568C2.27368 12.9999 1.85712 12.5833 1.85712 12.0713V2.78568C1.85712 2.27368 2.27368 1.85712 2.78568 1.85712H28.9092C29.4212 1.85712 29.8378 2.27368 29.8378 2.78568V12.0713Z" fill="#0E0E0E"/>
<path d="M27.0521 9.28562H4.64281C4.12999 9.28562 3.71425 9.70136 3.71425 10.2142C3.71425 10.727 4.12999 11.1427 4.64281 11.1427H27.0521C27.5649 11.1427 27.9807 10.727 27.9807 10.2142C27.9807 9.70136 27.5649 9.28562 27.0521 9.28562Z" fill="#0E0E0E"/>
<path d="M23.3378 7.42849C23.8507 7.42849 24.2664 7.01276 24.2664 6.49993C24.2664 5.9871 23.8507 5.57137 23.3378 5.57137C22.825 5.57137 22.4093 5.9871 22.4093 6.49993C22.4093 7.01276 22.825 7.42849 23.3378 7.42849Z" fill="#0E0E0E"/>
<path d="M27.0521 7.42849C27.5649 7.42849 27.9807 7.01276 27.9807 6.49993C27.9807 5.9871 27.5649 5.57137 27.0521 5.57137C26.5393 5.57137 26.1235 5.9871 26.1235 6.49993C26.1235 7.01276 26.5393 7.42849 27.0521 7.42849Z" fill="#0E0E0E"/>
<path d="M5.11996 25.9017C7.7096 24.6069 9.34752 21.9595 9.34752 19.0614V17.6427C9.34752 17.1299 8.93177 16.7141 8.41896 16.7141C7.90614 16.7141 7.4904 17.1299 7.4904 17.6427V19.0614C7.4904 21.2689 6.26389 23.2534 4.28946 24.2407C3.83075 24.47 3.64485 25.0278 3.87421 25.4865C4.10356 25.9452 4.66138 26.131 5.11996 25.9017Z" fill="#0E0E0E"/>
<path d="M23.2759 16.7141C22.7631 16.7141 22.3474 17.1299 22.3474 17.6427V19.0614C22.3474 21.9569 23.9828 24.6056 26.5749 25.9017C27.0345 26.1315 27.5918 25.9443 27.8207 25.4865C28.05 25.0278 27.8642 24.4701 27.4054 24.2407C25.431 23.2534 24.2045 21.2689 24.2045 19.0614V17.6427C24.2045 17.1299 23.7888 16.7141 23.2759 16.7141Z" fill="#0E0E0E"/>
<path d="M16.776 25.0712V17.6427C16.776 17.1299 16.3603 16.7141 15.8475 16.7141C15.3346 16.7141 14.9189 17.1299 14.9189 17.6427V25.0712C14.9189 25.584 15.3346 25.9997 15.8475 25.9997C16.3603 25.9997 16.776 25.584 16.776 25.0712Z" fill="#0E0E0E"/>
<path d="M20.4903 25.0712V17.6427C20.4903 17.1299 20.0745 16.7141 19.5617 16.7141C19.0489 16.7141 18.6331 17.1299 18.6331 17.6427V25.0712C18.6331 25.584 19.0489 25.9997 19.5617 25.9997C20.0745 25.9997 20.4903 25.584 20.4903 25.0712Z" fill="#0E0E0E"/>
<path d="M13.0618 25.0712V17.6427C13.0618 17.1299 12.646 16.7141 12.1332 16.7141C11.6204 16.7141 11.2046 17.1299 11.2046 17.6427V25.0712C11.2046 25.584 11.6204 25.9997 12.1332 25.9997C12.646 25.9997 13.0618 25.584 13.0618 25.0712Z" fill="#0E0E0E"/>
</svg>
