<?xml version="1.0" encoding="UTF-8"?>
<!DOCTYPE svg PUBLIC "-//W3C//DTD SVG 1.1//EN" "http://www.w3.org/Graphics/SVG/1.1/DTD/svg11.dtd">
<!-- Creator: CorelDRAW X5 -->
<svg xmlns="http://www.w3.org/2000/svg" xml:space="preserve" width="32.5604mm" height="24.5537mm" shape-rendering="geometricPrecision" text-rendering="geometricPrecision" image-rendering="optimizeQuality" fill-rule="evenodd" clip-rule="evenodd"
viewBox="0 0 389 293"
 xmlns:xlink="http://www.w3.org/1999/xlink">
 <g id="Capa_x0020_1">
  <metadata id="CorelCorpID_0Corel-Layer"/>
  <path fill="black" d="M342 266l-296 0c1,-1 1,0 1,-1 1,-3 21,-21 24,-24 1,-1 2,-2 3,-3 1,-1 2,-3 3,-4l4 -4c0,0 0,0 0,0l2 -2c0,0 0,0 0,0l0 0c0,0 0,0 0,0 0,0 0,0 0,0 6,-6 17,-18 23,-23 2,-2 8,-7 10,-10 1,-1 1,-2 3,-3l2 -2c0,0 0,0 0,0l1 -1c0,0 0,0 0,0l5 -5c1,-1 1,-1 2,-2 3,-5 10,-9 14,-14 2,1 4,4 6,6l15 15c0,0 0,0 0,0 1,1 2,2 3,2l11 6c1,1 2,1 3,1l4 1c0,0 0,0 0,0l2 0c0,0 0,0 0,0 3,0 5,1 8,0l12 -2c3,-1 9,-3 12,-6l1 -1c1,-1 2,-2 3,-3l1 -1c0,0 0,0 0,0l2 -3c0,0 0,0 0,0l2 -2c0,0 0,0 0,0l5 -5c0,0 0,0 0,0l2 -2c0,0 0,0 0,0l6 -6c1,0 1,1 1,1l1 2c0,0 0,0 0,0 0,0 0,0 0,0l1 1c0,0 0,0 0,0l1 1c0,0 0,0 0,0 0,0 0,0 0,0l2 2c0,0 0,0 0,0l2 2c0,0 0,0 0,0l3 3c3,4 10,9 14,14l1 1c0,0 0,0 0,0l2 2c0,0 0,0 0,0l1 1c0,0 0,0 0,0l2 2c0,0 0,1 0,1l1 1c0,0 0,0 0,0l2 2c1,1 0,1 2,1 0,2 0,1 1,1l2 2c0,0 0,0 0,0 0,0 0,0 0,0l6 6c0,0 0,0 0,0l25 25c1,1 3,3 4,4 2,3 8,9 11,12l2 2c0,0 0,0 0,0l1 1c0,0 1,0 1,1 2,2 4,4 6,6zm-164 -72l0 0c0,0 0,0 0,0zm-46 -15l0 0c0,0 0,0 0,0zm-71 72l0 0c0,0 0,0 0,0zm-5 5l0 0c0,0 0,0 0,0zm-2 2c0,0 0,0 0,0l0 0c0,0 0,0 0,0zm-2 2c0,0 0,0 0,0l0 0c0,0 0,0 0,0zm-26 -13l0 0c0,0 0,0 0,0zm0 0l0 -199 6 6c2,2 4,4 6,6l47 48c1,1 2,2 3,3l10 10c0,0 0,0 0,0l3 3c1,2 2,2 4,4l1 1c2,3 5,6 8,8 0,0 0,0 0,0l3 4c1,1 3,3 4,4l1 2c-2,1 -13,13 -14,14l-4 4c0,0 0,0 0,0l-2 2c0,0 0,0 0,0 0,0 0,0 0,0 0,0 0,0 0,0l-1 1c0,0 0,0 0,0l-4 4c0,0 0,0 0,0 0,0 0,0 0,0 -3,3 -1,1 -2,3 -3,4 -23,22 -27,28l-2 2c-1,1 0,0 0,0l-10 10c0,0 0,0 0,0l-4 4c-4,4 -10,9 -13,13l-5 5c0,0 0,0 0,0l-7 7c0,0 1,0 -1,1zm64 -65l0 0c0,0 0,0 0,0zm105 -10l-8 -1 -5 -3c0,0 0,0 0,0l-1 -1 -7 -7c-1,-1 -1,-3 -4,-5 0,0 -1,-1 -1,-1l-2 -2c0,0 0,0 0,0 -2,-2 -4,-4 -6,-6 -1,-1 0,0 -1,-1 -1,-1 -1,-1 -1,-1l-3 -3c-1,-1 -2,-2 -3,-3 0,0 0,0 0,0 0,0 0,0 0,0l0 0c-2,-2 -2,-1 -3,-3 -3,-5 -20,-19 -26,-27l-8 -8c0,0 0,0 0,0l-6 -6c0,0 0,0 -1,0 0,0 0,0 0,0l-8 -9c-5,-5 -12,-12 -17,-17 -7,-7 -13,-13 -19,-19 -3,-3 -9,-9 -12,-12l-4 -5c-1,-1 -1,-1 -1,-2l297 0 -5 5c-2,2 -10,10 -12,12 -3,4 -39,39 -46,47l-1 2c0,0 0,0 0,0 -3,2 -9,9 -9,9 0,0 0,0 0,0 -1,1 -5,4 -5,5 -1,1 0,1 -1,1 -1,0 0,0 -1,1 -2,2 -6,5 -8,8 -1,2 0,0 -2,2 -1,1 -2,2 -3,3 -2,2 -4,4 -5,5 -1,1 0,1 -1,1 -3,2 -6,5 -8,8l-3 3c0,0 0,0 0,0l-1 1c0,0 0,0 0,0 0,0 0,0 0,0 0,0 0,0 0,0l-7 7c0,0 0,0 0,0 0,0 0,0 0,0 -2,2 -2,2 -4,4 0,0 0,0 0,0l0 0c0,0 0,0 0,0l-1 1c0,0 0,0 0,0l-3 3c0,0 0,0 0,0l-1 1c0,0 0,0 0,0l-2 2c-2,2 -4,4 -6,6l-1 0c0,0 0,0 0,0l0 0c0,0 0,0 0,0l-1 1c-2,1 -5,3 -8,3zm-142 -134l0 0c0,0 0,0 0,0zm16 16l0 0c0,0 0,0 0,0zm105 107l0 0c0,0 0,0 0,0zm2 2l0 0c0,0 0,0 0,0zm3 3l0 0c0,0 0,0 0,0zm2 2l0 0c0,0 0,0 0,0zm179 -116l0 196c-1,0 -1,-1 -2,-1l-3 -3c-3,-4 -12,-12 -16,-17l-9 -9c-4,-5 -2,-3 -7,-8 -4,-4 -9,-9 -13,-13 -1,-1 -2,-2 -3,-3l-5 -6c0,0 0,0 0,0l-2 -2c-1,-1 0,1 0,0l-1 -1c0,0 0,0 0,0l-2 -2c0,0 0,0 0,0l-3 -3c0,0 0,0 0,0 0,0 0,0 0,0 0,0 0,0 0,0 0,0 0,0 0,0l-1 -2c-4,-5 -22,-22 -25,-26 -1,-1 -2,-2 -2,-3 3,-4 40,-39 44,-44 0,-1 0,0 1,-1l9 -9c1,-1 5,-4 6,-6l11 -11c0,0 0,0 0,0 2,-2 4,-3 5,-5l5 -5c0,0 0,0 0,0l16 -16zm-96 98l0 0c0,0 0,0 0,0zm-265 -147c1,1 0,256 0,291 0,3 -1,2 12,2 124,0 249,0 373,0l3 0 0 -5c0,-34 0,-287 0,-288 -1,-1 -336,0 -376,0 -4,0 -8,0 -13,0z"/>
 </g>
</svg>
