<?xml version="1.0" encoding="UTF-8"?>
<!DOCTYPE svg PUBLIC "-//W3C//DTD SVG 1.1//EN" "http://www.w3.org/Graphics/SVG/1.1/DTD/svg11.dtd">
<!-- Creator: CorelDRAW X5 -->
<svg xmlns="http://www.w3.org/2000/svg" xml:space="preserve" width="36.79mm" height="36.79mm" shape-rendering="geometricPrecision" text-rendering="geometricPrecision" image-rendering="optimizeQuality" fill-rule="evenodd" clip-rule="evenodd"
viewBox="0 0 532 532"
 xmlns:xlink="http://www.w3.org/1999/xlink">
 <g id="Capa_x0020_1">
  <metadata id="CorelCorpID_0Corel-Layer"/>
  <path fill="#373435" d="M221 445l72 0 0 -181 50 0 5 -61 -56 0c0,0 0,-23 0,-34 0,-14 3,-20 17,-20 11,0 39,0 39,0l0 -63c0,0 -41,0 -50,0 -54,0 -78,24 -78,69 0,39 0,48 0,48l-38 0 0 61 38 0 0 180z"/>
  <path fill="#373435" fill-rule="nonzero" d="M266 0c74,0 140,30 188,78 48,48 78,115 78,188 0,74 -30,140 -78,188 -48,48 -115,78 -188,78 -74,0 -140,-30 -188,-78 -48,-48 -78,-115 -78,-188 0,-74 30,-140 78,-188 48,-48 115,-78 188,-78zm163 104c-42,-42 -99,-67 -163,-67 -64,0 -121,26 -163,67 -42,42 -67,99 -67,163 0,64 26,121 67,163 42,42 99,67 163,67 64,0 121,-26 163,-67 42,-42 67,-99 67,-163 0,-64 -26,-121 -67,-163z"/>
 </g>
</svg>
