<svg width="26" height="26" viewBox="0 0 26 26" fill="none" xmlns="http://www.w3.org/2000/svg">
<path d="M22.1914 22.9531C22.6121 22.9531 22.9531 22.6121 22.9531 22.1914C22.9531 21.7707 22.6121 21.4297 22.1914 21.4297C21.7707 21.4297 21.4297 21.7707 21.4297 22.1914C21.4297 22.6121 21.7707 22.9531 22.1914 22.9531Z" fill="#0E0E0E"/>
<path d="M0.761719 26H9.90234C10.323 26 10.6641 25.659 10.6641 25.2383C10.6641 23.1382 8.95553 21.4297 6.85547 21.4297H6.09375V2.66602C6.09375 2.03602 6.60634 1.52344 7.23633 1.52344C7.86632 1.52344 8.37891 2.03602 8.37891 2.66602V15.7168C8.37891 17.1868 9.57491 18.3828 11.0449 18.3828H12.2891V23.7148C12.2891 24.9749 13.3142 26 14.5742 26H22.1914C24.2915 26 26 24.2915 26 22.1914C26 20.3522 24.6894 18.8133 22.9531 18.4594V10.1586C22.9531 8.7293 21.6615 7.63466 20.2915 7.901C15.9054 8.75367 12.6576 12.4575 12.3189 16.8594H11.0449C10.4149 16.8594 9.90234 16.3468 9.90234 15.7168V2.66602C9.90234 1.196 8.70634 0 7.23633 0C5.76631 0 4.57031 1.196 4.57031 2.66602V21.4297H3.80859C1.70854 21.4297 0 23.1382 0 25.2383C0 25.659 0.341047 26 0.761719 26ZM24.4766 22.1914C24.4766 23.4514 23.4514 24.4766 22.1914 24.4766C20.9314 24.4766 19.9062 23.4514 19.9062 22.1914C19.9062 20.9314 20.9314 19.9062 22.1914 19.9062C23.4514 19.9062 24.4766 20.9314 24.4766 22.1914ZM20.5822 9.39646C21.0242 9.31064 21.4297 9.70196 21.4297 10.1586V18.4594C19.6934 18.8133 18.3828 20.3521 18.3828 22.1914C18.3828 23.0481 18.6673 23.8396 19.1466 24.4766H14.5742C14.1542 24.4766 13.8125 24.1349 13.8125 23.7148V22.6368C17.4069 21.6167 19.9062 18.3298 19.9062 14.5742V9.55764C20.1277 9.49513 20.353 9.441 20.5822 9.39646ZM13.8125 17.6211C13.8125 14.4145 15.6396 11.5573 18.3828 10.1552V14.5742C18.3828 17.5017 16.509 20.0857 13.8125 21.0394V17.6211ZM3.80859 22.9531H6.85547C7.8486 22.9531 8.69573 23.5899 9.01012 24.4766H1.65395C1.96833 23.5899 2.81546 22.9531 3.80859 22.9531Z" fill="#0E0E0E"/>
</svg>
